# xmcd
#
# Track frame offsets:
#	150
#	11962
#	32589
#	51342
#
# Disc length: 859 seconds
#
# Revision: 3
# Processed by: cddbd v1.5.1PL2 Copyright (c) Steve Scherf et al.
# Submitted via: audiograbber 1.83.01
#
DISCID=2e035904
DTITLE=loretta lynn - fist city
DYEAR=1900
DGENRE=
TTITLE0=fist city
TTITLE1=dont cry joni
TTITLE2=feed jake
TTITLE3=wrong road again
EXTD=
EXTT0=
EXTT1=
EXTT2=
EXTT3=
PLAYORDER=
